Coordinates
datacolumns 6
datarows 133
range 0 1.32
inDegrees=yes
Units are S.I. units (second, meters, Newtons, ...)
If the header above contains a line with 'inDegrees', this indicates whether rotational values are in degrees (yes) or radians (no).
endheader
time	foot_tx	hip_flexion_r	knee_angle_r	ankle_angle_r	lumbar
0	0.20218137	60.44856172	-73.94507909	2.13131889	-18.14294165
0.01	0.20218974	60.69698443	-73.94408259	2.14843593	-18.2164071
0.02	0.20218666	60.92684828	-73.94177603	2.16873414	-18.33839158
0.03	0.20217514	61.17368229	-73.94092138	2.19059225	-18.46708105
0.04	0.20217298	61.43998268	-73.93519542	2.2083753	-18.60258795
0.05	0.20216219	61.72353394	-73.92752663	2.2248532	-18.74950424
0.06	0.20215614	62.02714965	-73.91433234	2.23726571	-18.90441703
0.07	0.20215085	62.3489077	-73.89531628	2.24634343	-19.06977769
0.08	0.20214509	62.68706036	-73.87055808	2.25351089	-19.24613648
0.09	0.20214063	63.03904224	-73.84095416	2.26063579	-19.43321358
0.1	0.20213006	63.4077577	-73.80793598	2.26936547	-19.6274878
0.11	0.20211799	63.79385431	-73.77144874	2.27959532	-19.82705179
0.12	0.20209869	64.20217833	-73.73433424	2.29283691	-20.02588105
0.13	0.20207743	64.63401907	-73.69637777	2.30845657	-20.22269305
0.14	0.20205499	65.09355925	-73.65725707	2.32575131	-20.41429315
0.15	0.2020314	65.58026873	-73.61848661	2.34597881	-20.60170756
0.16	0.20200591	66.0968572	-73.579471	2.36879489	-20.78375326
0.17	0.20198112	66.64652385	-73.5397349	2.3939736	-20.95809999
0.18	0.20195291	67.2262407	-73.50147287	2.42387538	-21.12904892
0.19	0.20192223	67.84086238	-73.46322967	2.45733522	-21.29328134
0.2	0.20189354	68.48926415	-73.42511421	2.49460596	-21.45247784
0.21	0.20185918	69.17624549	-73.38689474	2.53559316	-21.60378273
0.22	0.2018128	69.90671848	-73.34877845	2.58069391	-21.74240597
0.23	0.20175857	70.69145773	-73.30668939	2.62710229	-21.85675543
0.24	0.2016948	71.54611204	-73.25599928	2.67187035	-21.92924809
0.25	0.20160971	72.48183427	-73.19593539	2.7160038	-21.94522162
0.26	0.20151234	73.50709797	-73.12240073	2.75714463	-21.89192478
0.27	0.20139587	74.62233328	-73.03882305	2.79890853	-21.76401046
0.28	0.20126004	75.82163125	-72.94892428	2.84473292	-21.56210726
0.29	0.20109033	77.09851338	-72.85893324	2.90108274	-21.28588802
0.3	0.20090201	78.44968838	-72.7709044	2.96952979	-20.92965343
0.31	0.20068955	79.86394112	-72.69070971	3.05649717	-20.49680458
0.32	0.20046918	81.32948455	-72.62082018	3.16530277	-19.99064688
0.33	0.20025056	82.83238931	-72.56232639	3.29979185	-19.41700189
0.34	0.20004466	84.36289293	-72.5153764	3.46347551	-18.7757065
0.35	0.19987735	85.90830927	-72.47417034	3.65579578	-18.07066006
0.36	0.1997606	87.44765985	-72.43621403	3.87906795	-17.31664853
0.37	0.19970443	88.96403012	-72.39683567	4.13359215	-16.5229089
0.38	0.19972025	90.43603658	-72.35028135	4.41796598	-15.70602581
0.39	0.1998073	91.83396546	-72.29432262	4.73316399	-14.89375352
0.4	0.199968	93.1361471	-72.22429637	5.07651402	-14.10578708
0.41	0.20018915	94.31809411	-72.13927426	5.44742764	-13.36599897
0.42	0.2004532	95.3583706	-72.03973287	5.84476505	-12.69659602
0.43	0.20074305	96.23979785	-71.9263859	6.2664177	-12.11539417
0.44	0.2010365	96.9496819	-71.80111831	6.71046072	-11.63489709
0.45	0.20131684	97.48746298	-71.66427366	7.17299416	-11.25184196
0.46	0.20156781	97.85033405	-71.5153127	7.65032112	-10.96555557
0.47	0.20178622	98.04923149	-71.35020901	8.13655437	-10.75560314
0.48	0.20197347	98.09341851	-71.16381126	8.62609474	-10.60367263
0.49	0.20213839	97.98989826	-70.95073345	9.11406626	-10.49411459
0.5	0.20229661	97.7569226	-70.70141893	9.59263859	-10.39920546
0.51	0.20246443	97.39697398	-70.4093359	10.05678034	-10.3128127
0.52	0.20265105	96.91693722	-70.06593758	10.50077735	-10.22721442
0.53	0.20286648	96.32289012	-69.66315757	10.91923873	-10.13654344
0.54	0.20311723	95.61934149	-69.19426825	11.30778096	-10.03978054
0.55	0.20340481	94.81289034	-68.65294171	11.66260113	-9.93370054
0.56	0.20372736	93.91015065	-68.03341407	11.98014764	-9.81595677
0.57	0.20407683	92.91331154	-67.33122375	12.25845816	-9.6895167
0.58	0.2044441	91.82436527	-66.5426705	12.4958569	-9.55651373
0.59	0.20481902	90.64544986	-65.66427091	12.69087241	-9.41733021
0.6	0.20519279	89.37463951	-64.69391714	12.8428269	-9.27728078
0.61	0.2055601	88.00931874	-63.63083079	12.95107974	-9.14302986
0.62	0.20591822	86.54845991	-62.47625126	13.0153453	-9.0190482
0.63	0.20626995	84.99004067	-61.23241787	13.03548317	-8.90997029
0.64	0.20662131	83.33282053	-59.89978057	13.01037872	-8.81836781
0.65	0.2069836	81.58403399	-58.47743146	12.93746872	-8.73564791
0.66	0.20735937	79.74796402	-56.96448347	12.8151487	-8.65726476
0.67	0.20774979	77.82458573	-55.36106199	12.64293854	-8.58371966
0.68	0.20815186	75.81670587	-53.67034835	12.42241089	-8.51284315
0.69	0.20856287	73.72845934	-51.89807913	12.15710361	-8.43763038
0.7	0.20898428	71.56508348	-50.05146014	11.85056389	-8.35413054
0.71	0.20940314	69.31135104	-48.145242	11.51359881	-8.28398986
0.72	0.20982704	66.98326535	-46.18633562	11.14846731	-8.2106624
0.73	0.2102527	64.58027712	-44.18552209	10.76150287	-8.14037461
0.74	0.21068157	62.11187132	-42.15153231	10.35654166	-8.06779055
0.75	0.2111134	59.58659836	-40.09445236	9.93806778	-7.99043328
0.76	0.21154882	57.02674848	-38.02582377	9.51012976	-7.89098316
0.77	0.21198492	54.44014707	-35.9589657	9.078909	-7.77186601
0.78	0.21242185	51.8468701	-33.90797692	8.64985527	-7.62246149
0.79	0.21286247	49.26431128	-31.88681722	8.22819299	-7.43736068
0.8	0.2133075	46.71222293	-29.90941502	7.81894307	-7.21050968
0.81	0.21375581	44.21198853	-27.9889227	7.42648972	-6.93525275
0.82	0.21420177	41.78544345	-26.13784737	7.0549626	-6.60603452
0.83	0.21463975	39.45578554	-24.36674544	6.70707659	-6.21573542
0.84	0.21506344	37.236635	-22.68552437	6.38599298	-5.76901486
0.85	0.21547019	35.14203596	-21.10208491	6.09356641	-5.26876788
0.86	0.21584899	33.18809534	-19.62254394	5.8318117	-4.71037516
0.87	0.21620311	31.36978803	-18.24936906	5.60142371	-4.11318067
0.88	0.21652227	29.68629214	-16.98229947	5.40287062	-3.48463796
0.89	0.21680045	28.13317674	-15.81786112	5.23494003	-2.83323889
0.9	0.21702733	26.70051608	-14.75326496	5.09754172	-2.1719474
0.91	0.21721555	25.37883098	-13.78080736	4.98625698	-1.51243621
0.92	0.21736303	24.16296607	-12.89424507	4.89877966	-0.85686162
0.93	0.21747878	23.04040056	-12.08773649	4.83286524	-0.21708565
0.94	0.21756739	22.00149988	-11.35553202	4.78679963	0.40119355
0.95	0.21763565	21.0363631	-10.69251004	4.75917482	0.99251338
0.96	0.21769206	20.13602304	-10.09381582	4.74847017	1.55257759
0.97	0.21774415	19.29331422	-9.55444546	4.75270138	2.07864322
0.98	0.21779528	18.50304221	-9.06886297	4.76930502	2.56951646
0.99	0.21784274	17.76097392	-8.6304267	4.79525947	3.02552519
1	0.21787839	17.06245265	-8.23132161	4.82740877	3.44786257
1.01	0.21788972	16.40251992	-7.86280705	4.86269649	3.83928638
1.02	0.21786247	15.77582909	-7.51543989	4.89815549	4.2039231
1.03	0.21778346	15.17704051	-7.18010211	4.9311181	4.54622735
1.04	0.21764141	14.60241795	-6.84956374	4.95985752	4.87264538
1.05	0.2174389	14.04621037	-6.51976282	4.98337755	5.18280752
1.06	0.21718131	13.50940806	-6.1886941	5.00130331	5.48543228
1.07	0.21687733	12.9906172	-5.85695175	5.0146157	5.78247313
1.08	0.21654519	12.48851819	-5.53074442	5.026666	6.07305049
1.09	0.21620886	12.00664714	-5.21443685	5.03921688	6.36315929
1.1	0.21589128	11.54731173	-4.9189859	5.05738343	6.65228756
1.11	0.21560907	11.11557116	-4.65223092	5.08471706	6.9440986
1.12	0.21537629	10.71613942	-4.4230715	5.12535814	7.24117071
1.13	0.21521353	10.37121299	-4.24272087	5.18265025	7.56512733
1.14	0.21513334	10.04082984	-4.10939604	5.25797459	7.87039845
1.15	0.21514225	9.73708045	-4.02670623	5.35201975	8.17066889
1.16	0.21525252	9.49199215	-3.99847123	5.46270123	8.49847379
1.17	0.21544349	9.27262176	-4.0117848	5.58687254	8.82529764
1.18	0.21572009	9.07814557	-4.05896318	5.71861146	9.14891563
1.19	0.21605781	8.89721236	-4.12922285	5.85342921	9.4588774
1.2	0.21643662	8.7221109	-4.20849401	5.98471616	9.74950961
1.21	0.21683673	8.54370582	-4.28859015	6.10887064	10.00963166
1.22	0.21723605	8.35944277	-4.36341737	6.22343666	10.23391928
1.23	0.21762116	8.16279687	-4.42825816	6.32661061	10.41139466
1.24	0.21798086	7.97501918	-4.48766342	6.41988223	10.56286567
1.25	0.2183142	7.77196426	-4.53570252	6.50236674	10.66161921
1.26	0.21861845	7.57668963	-4.58170523	6.57788549	10.72916496
1.27	0.21890691	7.38668122	-4.61908675	6.64361491	10.76935577
1.28	0.21917148	7.21169303	-4.6636976	6.70795373	10.78559612
1.29	0.21943053	7.05098543	-4.70397786	6.76528833	10.78967143
1.3	0.219682	6.90957505	-4.74718864	6.81950286	10.78571514
1.31	0.21992485	6.78835768	-4.7930808	6.87084848	10.77758508
1.32	0.22015615	6.68780885	-4.83845843	6.91812927	10.77155477
